<?xml version="1.0" standalone="no"?>
<!DOCTYPE svg PUBLIC "-//W3C//DTD SVG 20010904//EN"
 "http://www.w3.org/TR/2001/REC-SVG-20010904/DTD/svg10.dtd">
<svg version="1.0" xmlns="http://www.w3.org/2000/svg"
 width="212.000000pt" height="231.000000pt" viewBox="0 0 212.000000 231.000000"
 preserveAspectRatio="xMidYMid meet">

<g transform="translate(0.000000,231.000000) scale(0.100000,-0.100000)"
fill="#000000" stroke="none">
<path d="M340 2297 c0 -8 48 -29 167 -73 107 -39 197 -82 268 -130 57 -38 155
-129 155 -144 0 -5 -24 -10 -53 -10 -37 0 -69 -8 -105 -26 l-52 -26 -82 60
c-108 78 -178 116 -269 148 -132 46 -310 69 -348 45 -16 -10 43 -24 179 -41
107 -14 183 -33 262 -67 65 -28 188 -102 188 -114 0 -4 -27 -7 -60 -8 -73 -1
-115 -17 -170 -67 -61 -55 -94 -124 -96 -204 -1 -55 -7 -74 -33 -115 -46 -74
-92 -190 -109 -277 -13 -65 -13 -88 -3 -132 24 -107 87 -162 174 -151 27 3 68
15 91 27 50 24 96 19 96 -11 0 -22 -22 -42 -77 -70 -23 -11 -49 -31 -57 -43
-38 -54 -1 -192 64 -238 17 -12 51 -25 74 -27 37 -5 47 -1 78 26 20 17 45 31
56 31 31 0 45 25 38 65 -6 30 -4 35 12 35 10 0 27 9 37 20 19 21 21 16 -30 85
-13 19 -12 25 7 64 17 35 24 41 42 36 12 -4 71 -11 131 -16 121 -9 156 -15
198 -31 25 -10 27 -14 27 -70 0 -54 -4 -64 -34 -100 -80 -93 -86 -231 -16
-369 18 -35 18 -36 -4 -90 -23 -58 -106 -185 -159 -245 -31 -36 -31 -37 -7
-30 57 16 215 104 300 168 68 50 100 68 123 68 51 0 161 27 204 48 50 26 119
95 144 144 36 71 52 164 44 268 -3 52 -5 111 -3 130 9 112 2 166 -24 211 -15
26 -42 59 -60 75 -18 16 -50 51 -72 77 l-39 47 24 35 24 35 88 0 c93 0 107 -9
67 -45 -22 -20 -26 -50 -8 -61 7 -5 9 -2 5 8 -3 10 6 27 24 44 24 23 28 33 23
59 -4 25 0 38 19 61 24 27 26 28 53 14 15 -8 52 -37 81 -64 54 -49 68 -86 39
-103 -21 -12 -58 -91 -46 -98 15 -9 2 -25 -21 -25 -11 0 -30 5 -42 12 -19 10
-20 12 -4 17 13 5 7 13 -31 42 -35 25 -54 33 -68 28 -19 -7 -19 -7 1 -14 11
-5 41 -30 67 -56 31 -32 56 -49 71 -49 25 0 57 28 57 49 0 6 11 34 25 61 14
27 25 56 25 64 0 23 -57 84 -125 134 -33 24 -59 46 -58 49 1 3 41 27 90 52 67
36 96 58 124 95 65 86 57 125 -29 134 -29 2 -52 7 -52 9 0 3 20 27 45 55 24
27 59 79 76 114 32 64 32 66 16 99 -16 34 -18 35 -74 35 -111 0 -293 -82 -424
-191 -33 -28 -62 -49 -64 -47 -1 1 9 37 22 78 33 100 43 239 18 260 -15 13
-23 11 -64 -11 -61 -34 -132 -124 -184 -231 -23 -48 -46 -87 -50 -87 -5 -1
-22 8 -37 19 -38 27 -105 50 -145 50 -18 0 -38 6 -44 14 -6 8 -26 20 -44 27
-18 7 -78 56 -133 110 -164 158 -332 253 -469 266 -36 3 -65 3 -65 0z m1224
-203 c17 -44 -4 -160 -48 -271 -22 -56 -122 -211 -137 -212 -3 -1 -11 18 -18
42 -7 23 -25 66 -41 94 l-28 53 33 67 c43 88 62 114 131 185 58 59 96 74 108
42z m498 -91 c10 -9 18 -26 18 -37 -1 -59 -87 -174 -190 -252 -27 -21 -48 -39
-47 -41 2 -1 27 6 55 17 57 22 113 26 143 10 55 -30 -14 -124 -142 -190 l-80
-41 -51 31 c-70 44 -121 60 -182 60 -65 0 -120 -26 -171 -79 -37 -38 -65 -52
-65 -32 0 4 4 32 10 61 8 42 23 69 79 139 145 180 281 286 445 342 92 33 151
37 178 12z m-1117 -96 c39 -30 -7 -87 -70 -87 -28 0 -55 24 -55 50 0 42 84 66
125 37z m238 -71 c80 -33 147 -140 155 -248 7 -106 -2 -134 -51 -159 -23 -12
-104 -82 -180 -155 -106 -103 -152 -140 -202 -164 -84 -40 -201 -70 -300 -77
-95 -6 -101 -18 73 131 88 75 136 108 222 150 248 122 372 255 299 322 -20 18
-21 18 -45 -13 -13 -18 -64 -62 -112 -99 -48 -37 -150 -129 -227 -203 -279
-270 -479 -389 -541 -320 -26 29 -31 160 -10 265 19 96 89 242 146 307 23 26
37 47 32 47 -20 0 -95 -97 -132 -170 -72 -143 -102 -301 -78 -405 5 -21 1 -17
-14 15 -39 83 -23 221 39 345 56 112 176 250 297 341 46 35 49 36 42 13 -34
-117 -8 -209 72 -257 42 -24 57 -27 137 -27 108 0 149 18 218 95 58 64 81 130
75 216 l-4 64 28 0 c16 0 43 -6 61 -14z m21 -232 c9 -23 -41 -104 -64 -104 -4
0 -12 10 -17 23 -9 19 -6 27 25 60 40 41 47 44 56 21z m409 -69 c11 -5 10 -14
-10 -52 -12 -26 -23 -63 -23 -82 0 -27 -3 -32 -10 -21 -5 8 -10 32 -10 53 0
23 -4 36 -10 32 -14 -8 -13 -78 1 -109 10 -20 9 -30 -5 -51 -10 -14 -25 -29
-34 -32 -9 -4 -33 -24 -53 -45 -40 -43 -73 -49 -119 -21 -76 45 -68 150 16
193 16 8 48 36 72 61 61 67 130 94 185 74z m-503 -24 c5 -11 10 -24 10 -29 0
-11 -99 -87 -104 -81 -2 2 -9 14 -15 26 -12 24 -13 23 59 82 31 25 37 26 50 2z
m618 -20 c83 -42 90 -53 58 -92 -14 -17 -26 -36 -26 -44 0 -8 -20 -14 -62 -18
-54 -4 -65 -2 -80 15 -29 33 -19 108 19 150 21 23 24 23 91 -11z m-738 -80 c8
-17 3 -23 -36 -46 -35 -21 -49 -24 -57 -15 -9 9 -2 20 28 46 47 39 51 40 65
15z m-114 -86 c-21 -16 -32 -13 -21 4 3 6 14 11 23 11 15 -1 15 -2 -2 -15z
m734 -214 c28 -119 -55 -248 -191 -296 -90 -32 -188 -9 -243 56 l-29 34 99 6
c59 4 116 13 142 24 84 34 142 134 142 244 l1 56 34 -38 c19 -23 38 -58 45
-86z m-879 -122 c8 -16 8 -27 -2 -45 -11 -21 -20 -24 -69 -24 -32 0 -75 -7
-96 -16 -22 -9 -56 -17 -78 -18 -34 -2 -36 -1 -20 11 10 7 23 13 30 13 6 0 28
18 49 41 29 32 47 43 83 49 77 13 91 11 103 -11z m-40 -99 c10 -6 19 -20 19
-32 0 -18 -4 -20 -35 -15 -43 7 -46 -7 -5 -22 26 -8 30 -15 29 -43 -1 -18 1
-42 5 -53 3 -11 2 -26 -3 -33 -7 -12 -12 -12 -29 -1 -12 7 -22 11 -24 9 -2 -3
-10 -18 -18 -35 -12 -24 -23 -31 -52 -33 -33 -3 -39 1 -53 28 -18 35 -12 72
10 63 27 -10 36 41 18 92 -20 51 -14 63 39 75 48 12 77 11 99 0z m-167 -71
l18 -41 -28 -29 c-20 -21 -28 -40 -28 -64 l0 -35 -27 26 c-26 25 -49 82 -49
124 0 34 28 60 65 60 27 0 34 -6 49 -41z m231 -18 c0 -23 -22 -24 -28 -1 -4
16 -1 20 11 18 9 -2 17 -10 17 -17z m954 -58 c-28 -150 -110 -261 -218 -294
-20 -6 -65 -13 -101 -16 -54 -4 -75 -1 -118 17 -111 48 -176 176 -146 288 6
21 8 20 24 -16 24 -53 73 -88 150 -108 81 -21 178 -15 245 15 57 25 128 90
146 133 18 43 27 33 18 -19z m-543 -428 c20 -14 54 -30 75 -37 22 -6 39 -14
39 -19 0 -21 -171 -138 -289 -199 l-45 -22 43 48 c41 46 131 212 131 241 0 18
3 17 46 -12z"/>
</g>
</svg>
